<?xml version="1.0" encoding="UTF-8" standalone="no"?>
<svg
   xmlns:dc="http://purl.org/dc/elements/1.1/"
   xmlns:cc="http://creativecommons.org/ns#"
   xmlns:rdf="http://www.w3.org/1999/02/22-rdf-syntax-ns#"
   xmlns:svg="http://www.w3.org/2000/svg"
   xmlns="http://www.w3.org/2000/svg"
   xmlns:sodipodi="http://sodipodi.sourceforge.net/DTD/sodipodi-0.dtd"
   xmlns:inkscape="http://www.inkscape.org/namespaces/inkscape"
   width="24"
   height="24"
   viewBox="0 0 24 24"
   id="svg3132"
   version="1.1"
   inkscape:version="0.48.4 r9939"
   sodipodi:docname="iconmonstr-note-37.svg">
  <metadata
     id="metadata3140">
    <rdf:RDF>
      <cc:Work
         rdf:about="">
        <dc:format>image/svg+xml</dc:format>
        <dc:type
           rdf:resource="http://purl.org/dc/dcmitype/StillImage" />
        <dc:title></dc:title>
      </cc:Work>
    </rdf:RDF>
  </metadata>
  <defs
     id="defs3138" />
  <sodipodi:namedview
     pagecolor="#ffffff"
     bordercolor="#666666"
     borderopacity="1"
     objecttolerance="10"
     gridtolerance="10"
     guidetolerance="10"
     inkscape:pageopacity="0"
     inkscape:pageshadow="2"
     inkscape:window-width="1255"
     inkscape:window-height="742"
     id="namedview3136"
     showgrid="false"
     inkscape:zoom="9.8333333"
     inkscape:cx="12"
     inkscape:cy="12"
     inkscape:window-x="57"
     inkscape:window-y="24"
     inkscape:window-maximized="0"
     inkscape:current-layer="svg3132" />
  <path
     d="M 11.181818,9.7275 C 12.295364,4.877408 17.727273,4.0003333 17.727273,4.0003333 V 2.364 L 21,5.6219397 17.727273,8.909333 V 7.273 c 0,0 -4.174364,-0.085089 -6.545455,2.4545 z m 4.090909,0.818167 H 7.0909091 v 0.818166 h 8.1818179 v -0.818166 z m 2.454546,0.683168 v 2.215596 c 0,3.36021 -4.909091,2.010235 -4.909091,2.010235 0,0 1.242,4.909 -2.158364,4.909 H 4.6363636 V 4.0003333 H 13.424455 C 14.386636,3.380163 15.347182,2.9841703 16.090909,2.7395384 V 2.364 H 3 V 22 h 8.336455 c 2.587909,0 8.027181,-5.909618 8.027181,-7.865854 V 9.584321 l -1.636363,1.644514 z M 7.0909091,13.818333 H 15.272727 V 13.000167 H 7.0909091 v 0.818166 z M 10.043727,8.091167 H 7.0909091 V 8.909333 H 9.7630909 L 10.043727,8.091167 z"
     id="path3134"
     inkscape:connector-curvature="0" />
</svg>
