<?xml version="1.0" encoding="UTF-8" standalone="no"?>
<svg
   xmlns:dc="http://purl.org/dc/elements/1.1/"
   xmlns:cc="http://creativecommons.org/ns#"
   xmlns:rdf="http://www.w3.org/1999/02/22-rdf-syntax-ns#"
   xmlns:svg="http://www.w3.org/2000/svg"
   xmlns="http://www.w3.org/2000/svg"
   xmlns:sodipodi="http://sodipodi.sourceforge.net/DTD/sodipodi-0.dtd"
   xmlns:inkscape="http://www.inkscape.org/namespaces/inkscape"
   width="24"
   height="24"
   viewBox="0 0 24 24"
   id="svg3110"
   version="1.1"
   inkscape:version="0.48.4 r9939"
   sodipodi:docname="iconmonstr-refresh-3.svg">
  <metadata
     id="metadata3118">
    <rdf:RDF>
      <cc:Work
         rdf:about="">
        <dc:format>image/svg+xml</dc:format>
        <dc:type
           rdf:resource="http://purl.org/dc/dcmitype/StillImage" />
        <dc:title></dc:title>
      </cc:Work>
    </rdf:RDF>
  </metadata>
  <defs
     id="defs3116" />
  <sodipodi:namedview
     pagecolor="#ffffff"
     bordercolor="#666666"
     borderopacity="1"
     objecttolerance="10"
     gridtolerance="10"
     guidetolerance="10"
     inkscape:pageopacity="0"
     inkscape:pageshadow="2"
     inkscape:window-width="1543"
     inkscape:window-height="876"
     id="namedview3114"
     showgrid="false"
     inkscape:zoom="9.8333333"
     inkscape:cx="12"
     inkscape:cy="12"
     inkscape:window-x="57"
     inkscape:window-y="24"
     inkscape:window-maximized="1"
     inkscape:current-layer="svg3110" />
  <path
     d="M 9.5,11.5 5.7808334,15.640834 2,11.5 H 4.5 C 4.5,7.3583338 7.8583334,4 12,4 c 1.995833,0 3.804166,0.785 5.149166,2.0566663 l -1.67,1.8591675 C 14.578334,7.0408338 13.351667,6.5 12,6.5 9.2425,6.5 7,8.7425 7,11.5 H 9.5 z M 18.219166,7.3591663 14.5,11.5 H 17 c 0,2.7575 -2.2425,5 -5,5 -1.3525,0 -2.5783334,-0.541666 -3.4791666,-1.415834 l -1.67,1.859168 C 8.195,18.215 10.004167,19 12,19 c 4.141666,0 7.5,-3.358334 7.5,-7.5 H 22 L 18.219166,7.3591663 z"
     id="path3112"
     inkscape:connector-curvature="0" />
</svg>
