<?xml version="1.0" encoding="UTF-8" standalone="no"?>
<svg
   xmlns:dc="http://purl.org/dc/elements/1.1/"
   xmlns:cc="http://creativecommons.org/ns#"
   xmlns:rdf="http://www.w3.org/1999/02/22-rdf-syntax-ns#"
   xmlns:svg="http://www.w3.org/2000/svg"
   xmlns="http://www.w3.org/2000/svg"
   xmlns:sodipodi="http://sodipodi.sourceforge.net/DTD/sodipodi-0.dtd"
   xmlns:inkscape="http://www.inkscape.org/namespaces/inkscape"
   width="24"
   height="24"
   viewBox="0 0 24 24"
   id="svg3389"
   version="1.1"
   inkscape:version="0.48.4 r9939"
   sodipodi:docname="iconmonstr-trash-can-1.svg">
  <metadata
     id="metadata3397">
    <rdf:RDF>
      <cc:Work
         rdf:about="">
        <dc:format>image/svg+xml</dc:format>
        <dc:type
           rdf:resource="http://purl.org/dc/dcmitype/StillImage" />
        <dc:title></dc:title>
      </cc:Work>
    </rdf:RDF>
  </metadata>
  <defs
     id="defs3395" />
  <sodipodi:namedview
     pagecolor="#ffffff"
     bordercolor="#666666"
     borderopacity="1"
     objecttolerance="10"
     gridtolerance="10"
     guidetolerance="10"
     inkscape:pageopacity="0"
     inkscape:pageshadow="2"
     inkscape:window-width="1227"
     inkscape:window-height="757"
     id="namedview3393"
     showgrid="false"
     inkscape:zoom="9.8333333"
     inkscape:cx="12"
     inkscape:cy="12"
     inkscape:window-x="57"
     inkscape:window-y="24"
     inkscape:window-maximized="0"
     inkscape:current-layer="svg3389" />
  <path
     d="M 6.6,8 V 20 H 17.400001 V 8 H 6.6 z m 3.0000001,9.333333 C 9.6000001,17.701333 9.3312001,18 9,18 8.6688,18 8.4000001,17.701333 8.4000001,17.333333 V 10.666667 C 8.4000001,10.298667 8.6688,10 9,10 c 0.3312001,0 0.6000001,0.298667 0.6000001,0.666667 v 6.666666 z m 2.9999999,0 C 12.6,17.701333 12.3312,18 12,18 11.6688,18 11.4,17.701333 11.4,17.333333 V 10.666667 C 11.4,10.298667 11.6688,10 12,10 c 0.3312,0 0.6,0.298667 0.6,0.666667 v 6.666666 z m 3.000001,0 C 15.600001,17.701333 15.3312,18 15,18 14.6688,18 14.4,17.701333 14.4,17.333333 V 10.666667 C 14.4,10.298667 14.6688,10 15,10 c 0.3312,0 0.600001,0.298667 0.600001,0.666667 v 6.666666 z M 18,5.3333333 V 6.666667 H 6 V 5.3333333 H 9.4266001 C 9.9666001,5.3333333 10.4052,4.6006668 10.4052,4 h 3.189 c 0,0.6006668 0.438001,1.3333333 0.9786,1.3333333 H 18 z"
     id="path3391"
     inkscape:connector-curvature="0" />
</svg>
